<svg width="69" height="78" viewBox="0 0 69 78" fill="none" xmlns="http://www.w3.org/2000/svg">
<path d="M9.17204 43.6322L10.1113 36.9232H58.0133L59.4893 43.6322L63.5146 51.683L67.54 56.1109V59.7338L64.4539 62.6857H5.14665L2.99978 61.7464L1.25545 59.7338V56.1109L5.14665 51.683L9.17204 43.6322Z" stroke="#D1D3E2"/>
<ellipse cx="33.9187" cy="34.1722" rx="24.0904" ry="27.1907" fill="#D1D3E2"/>
<ellipse cx="33.9187" cy="5.661" rx="5.28874" ry="5.25121" fill="#D1D3E2"/>
<path d="M21.5165 43.3639C20.9778 44.0751 20.6216 44.8083 20.1747 45.5779C19.5172 46.7103 18.6841 47.6723 17.7595 48.5969C16.4219 49.9346 15.0073 51.1667 13.7043 52.5179C13.4197 52.8131 13.2346 53.1783 12.9887 53.4945C12.6428 53.9392 12.0939 54.2626 11.6916 54.6648C11.2997 55.0567 10.6282 55.263 10.3498 55.7084C10.2454 55.8755 9.70874 56.289 9.70874 55.9022C9.70874 55.2244 9.85854 54.8073 10.2455 54.2325C11.1467 52.8935 12.062 51.5731 12.6607 50.0431C13.2813 48.4571 13.5212 46.7095 14.0025 45.0784C14.4065 43.7092 15.1144 42.3476 15.7468 41.0829" stroke="#D1D3E2" stroke-width="6" stroke-linecap="round"/>
<path d="M16.6861 40.6803C16.3382 42.5502 16.312 44.6194 17.0439 46.4053C18.6806 50.3989 22.8916 53.4728 26.9284 54.6797C28.1495 55.0447 29.4918 55.3176 30.7749 55.1418C31.3972 55.0566 31.9819 54.7726 32.5938 54.6349C34.3523 54.2393 36.1828 54.1849 37.9758 54.0982C40.8709 53.9583 43.7834 53.6957 46.6826 53.6957C49.0581 53.6957 41.9316 53.6847 39.5562 53.6957C37.9139 53.7033 36.2665 53.7115 34.6363 53.9342C34.0647 54.0123 33.382 54.0526 34.189 54.456C37.3368 56.0299 40.9599 56.5174 44.4164 56.8936C46.5777 57.1289 48.6463 56.9707 50.8123 56.8489C52.4875 56.7547 54.1648 56.6909 55.8217 56.4091C56.166 56.3505 56.5203 56.2451 56.8728 56.2451C57.1006 56.2451 57.2761 56.0932 56.91 56.2153C56.4907 56.3551 56.1348 56.5731 55.7322 56.752C55.1455 57.0128 54.4397 57.0018 53.8239 57.2142C53.0421 57.4838 52.0746 57.9894 51.2298 57.9894C50.2574 57.9894 49.2174 58.1236 48.2107 58.1236C47.4454 58.1236 46.6727 58.0953 45.9073 58.1236C44.9887 58.1576 43.8836 58.1625 42.9852 58.3621C42.4083 58.4904 41.6307 58.5261 41.0396 58.5261C40.2485 58.5261 39.5812 58.8277 38.8331 58.9212C38.2634 58.9924 37.7293 59.0629 37.1484 59.0629C36.7114 59.0629 35.9317 58.9113 35.5382 59.13C34.6428 59.6274 32.5208 59.4434 31.58 59.3014C30.1848 59.0908 28.9381 58.998 27.4949 59.197C25.3921 59.4871 23.5944 58.7945 21.5165 58.7945C20.1643 58.7945 18.8463 58.5261 17.4837 58.5261C16.86 58.5261 16.2363 58.5261 15.6126 58.5261C15.389 58.5261 15.1654 58.5261 14.9417 58.5261C14.5816 58.5261 14.755 58.678 14.6436 58.9287C14.447 59.371 14.1147 59.3312 14.8746 59.3312C15.3219 59.3312 15.7692 59.3312 16.2164 59.3312C17.1363 59.3312 18.0223 59.5996 18.9 59.5996C19.7919 59.5996 20.7745 59.8898 21.6209 59.6294C22.6037 59.327 23.2765 59.4334 22.7241 58.1907C22.547 57.7922 21.7711 57.3028 21.4122 57.0502C20.7796 56.6051 20.0689 56.1095 19.5038 55.5742C18.6698 54.7841 17.3387 54.3666 16.2164 54.3666C15.4712 54.3666 14.6803 54.8208 14.0025 55.1418C13.036 55.5996 11.9756 55.9383 10.9834 56.3793C10.474 56.6057 10.0649 56.969 9.57455 57.2142C9.24273 57.3801 8.88634 57.4666 8.60548 57.6913C8.18534 58.0274 6.91212 58.392 6.35425 58.392C5.9854 58.392 4.08014 58.0452 4.54283 57.7882C5.22451 57.4094 5.91601 56.8512 6.48843 56.2451C6.75861 55.959 6.91515 55.5549 7.22642 55.3058C7.5193 55.0715 7.95416 54.3408 8.30731 54.2399C9.05707 54.0256 9.27167 52.8331 9.70873 52.2868C10.2016 51.6707 10.5639 50.9449 11.0803 50.371C11.3842 50.0334 11.8719 49.8317 11.9823 49.3349C12.0715 48.9338 12.1722 48.5476 12.2656 48.1272C12.6297 46.4887 13.1974 44.855 13.1974 43.0955" stroke="#D1D3E2" stroke-width="6" stroke-linecap="round"/>
<path d="M16.8203 58.6603C16.5162 58.8906 16.2464 59.1588 15.9481 59.3908C15.7838 59.5186 15.5329 59.4995 15.3741 59.6294C15.1323 59.8272 14.8712 59.7878 14.6063 59.935C14.1266 60.2015 13.2728 60.1418 12.7278 60.263C12.4702 60.3202 12.0196 60.3211 11.8258 60.1661C11.4291 59.8487 10.2673 59.8679 9.77584 59.8679C9.16744 59.8679 8.54858 59.5995 7.96442 59.5995" stroke="#D1D3E2" stroke-width="6" stroke-linecap="round"/>
<path d="M15.0759 59.3313C13.1326 60.703 10.5024 59.9804 8.36695 59.868C7.7663 59.8364 7.23569 59.5996 6.62262 59.5996C6.07405 59.5996 5.65036 59.32 5.28083 58.9287C5.01854 58.651 4.89971 58.0853 4.87829 57.7211C4.84883 57.2203 3.62499 57.9452 4.60993 57.4528" stroke="#D1D3E2" stroke-width="6" stroke-linecap="round"/>
<path d="M4.2074 59.197C3.92864 59.3155 3.75201 59.4271 3.5365 59.5996" stroke="#D1D3E2" stroke-width="6" stroke-linecap="round"/>
<path d="M15.7468 38.9359C15.0275 39.8245 14.3141 40.6177 13.667 41.5524C13.4454 41.8725 13.3156 42.259 13.0632 42.5588C12.6495 43.0501 12.2895 43.9641 12.0196 44.5714C11.7717 45.1292 11.7134 45.7356 11.4232 46.3158C11.0177 47.1268 10.6205 47.9213 10.2156 48.731C9.56169 50.0389 8.55808 51.0974 7.86004 52.3538C7.58714 52.8451 7.28118 53.325 6.92079 53.7255C6.59633 54.086 6.03006 54.6124 5.81754 55.0374" stroke="#D1D3E2" stroke-width="6" stroke-linecap="round"/>
<path d="M12.3923 39.7411C11.8333 40.7195 11.7214 41.601 11.7214 42.693" stroke="#D1D3E2" stroke-width="6" stroke-linecap="round"/>
<path d="M58.4158 57.4528C55.9387 58.215 53.1496 58.2651 50.5887 58.4516C48.1877 58.6266 45.7932 58.6604 43.3877 58.6604C42.6608 58.6604 40.4841 58.7946 41.2111 58.7946C42.361 58.7946 43.549 58.9617 44.6997 59.0331C45.7881 59.1006 46.8891 59.0629 47.9797 59.0629C48.4494 59.0629 48.8924 59.1971 49.3513 59.1971C49.6192 59.1971 48.2485 59.3313 47.9573 59.3313C44.5774 59.3313 41.2376 59.3313 37.8864 59.3313C36.4734 59.3313 35.0962 59.0629 33.6597 59.0629C31.1114 59.0629 28.5128 58.96 25.9743 59.1673C24.734 59.2685 23.5324 59.0629 22.2918 59.0629C21.9215 59.0629 21.5513 59.0629 21.1811 59.0629C20.8562 59.0629 21.9743 59.0584 22.1352 59.0704C25.3156 59.3059 28.52 59.4654 31.7141 59.4654" stroke="#D1D3E2" stroke-width="6" stroke-linecap="round"/>
<path d="M56.1348 55.5742C55.0269 56.9591 53.1805 57.1429 51.528 57.4527C50.8417 57.5814 50.2005 57.8107 49.5302 57.9596C49.2655 58.0185 47.5655 58.2166 47.6069 58.6305C47.6475 59.0362 49.9105 59.2179 50.1713 59.2567C51.9234 59.5177 53.6982 59.4654 55.4639 59.4654C55.9804 59.4654 56.9504 59.6534 57.4095 59.3983C57.875 59.1397 58.9468 59.3312 59.4594 59.3312C60.2487 59.3312 61.0352 59.4654 61.8374 59.4654C62.5307 59.4654 63.2239 59.4654 63.9172 59.4654C64.3639 59.4654 64.8023 58.7244 64.3868 58.392C63.998 58.0809 64.1182 57.3989 63.8501 57.1844C63.7366 57.0936 63.7343 56.7227 63.6488 56.5731C63.4888 56.293 63.1749 55.965 62.9481 55.7382C61.9981 54.7882 60.7394 54.2553 60.0558 53.0248C59.6416 52.2793 59.0878 51.6717 58.7438 50.8854C58.5447 50.4303 58.2382 50.0916 58.0729 49.5958C57.7797 48.716 57.5492 47.8644 57.3424 46.9569C56.7475 44.3458 56.2958 41.7001 55.4639 39.2043" stroke="#D1D3E2" stroke-width="6" stroke-linecap="round"/>
<path d="M56.8057 46.3158C57.0062 47.3686 57.3424 48.4295 57.3424 49.5063C57.3424 50.4681 57.0424 50.7145 56.2541 51.2879C55.245 52.0218 53.9358 52.3982 52.8101 52.9204C52.3585 53.1299 51.2638 53.9812 50.708 53.8224C50.5949 53.7901 52.9112 50.4853 53.0487 50.0728" stroke="#D1D3E2" stroke-width="6" stroke-linecap="round"/>
<path d="M52.6461 48.7311C51.3975 47.7851 50.7686 46.5535 50.1265 45.138C49.6113 44.0021 48.8891 42.8396 48.8891 41.5599C48.8891 40.5141 48.8894 39.606 49.2245 38.6005C49.2789 38.4374 49.5835 36.7614 49.724 36.6847C50.5729 36.2217 54.013 42.7451 54.5917 43.7739C55.0392 44.5694 55.3404 45.4729 55.9708 46.1518C56.2226 46.423 56.7156 46.8162 56.7982 47.188C56.9889 48.0461 57.0359 48.943 57.2679 49.8045C57.4401 50.4442 57.2886 51.4653 58.0133 51.7874C58.3241 51.9255 58.8765 51.8172 59.2209 51.8172C59.6584 51.8172 59.8952 52.0002 59.7502 51.3476C59.6195 50.7597 59.2165 49.8597 58.7886 49.4318C58.5381 49.1813 58.0587 49.12 57.8791 48.8056C57.7585 48.5945 57.5468 48.2965 57.3424 48.1944" stroke="#D1D3E2" stroke-width="6" stroke-linecap="round"/>
<path d="M59.4893 50.4753C59.7025 50.9897 60.0251 51.1573 60.19 51.5488C60.3109 51.8359 60.2654 52.2052 60.5627 52.3539" stroke="#D1D3E2" stroke-width="6" stroke-linecap="round"/>
<path d="M64.1855 56.2451C64.4464 56.4428 64.6839 56.6796 64.9906 56.7818" stroke="#D1D3E2" stroke-width="6" stroke-linecap="round"/>
<path d="M45.934 69.9296C45.934 74.2648 41.088 77.0414 35.9376 77.0414C30.7873 77.0414 25.2704 74.2649 25.2704 69.9297C25.2704 65.5946 25.2704 67.1119 35.9376 67.1119C45.934 67.1119 45.934 65.5945 45.934 69.9296Z" fill="#D1D3E2"/>
</svg>
