<svg width="17" height="15" viewBox="0 0 17 15" fill="none" xmlns="http://www.w3.org/2000/svg">
<path d="M9.15959 0.732796C9.51317 0.732799 9.84047 0.919528 10.0204 1.22391L13.5269 7.15536L16.5841 12.5796C16.7371 12.851 16.7548 13.1782 16.6321 13.4645L16.4479 13.8944C16.2903 14.2621 15.9288 14.5005 15.5287 14.5005H8.77203H2.36206C2.0032 14.5005 1.67186 14.3082 1.49381 13.9966L1.21364 13.5063C1.03797 13.1989 1.03797 12.8215 1.21364 12.514L1.78173 11.5199L3.05916 9.31987L6.2172 3.96182L7.77443 1.23665C7.95248 0.925077 8.28382 0.73279 8.64268 0.732793L9.15959 0.732796Z" fill="white"/>
<rect x="7.85196" y="4.39978" width="2.05306" height="4.13937" rx="1" fill="#F6C23E"/>
<circle cx="8.87848" cy="10.3125" r="1.19751" fill="#F6C23E"/>
</svg>
