<svg width="12" height="16" viewBox="0 0 12 16" fill="none" xmlns="http://www.w3.org/2000/svg">
<path d="M0.0120544 1.50293C0.0120544 0.950646 0.45977 0.50293 1.01205 0.50293H5.32991C5.88219 0.50293 6.32991 0.950645 6.32991 1.50293V4.12261C6.32991 4.67489 6.77762 5.12261 7.32991 5.12261H10.0525C10.6048 5.12261 11.0525 5.57032 11.0525 6.12261V14.1942C11.0525 14.7464 10.6048 15.1942 10.0525 15.1942H1.01206C0.459771 15.1942 0.0120544 14.7464 0.0120544 14.1942V1.50293Z" fill="white"/>
<rect x="2.6868" y="6.78503" width="5.15071" height="0.764295" rx="0.382147" fill="#2C7BE5"/>
<rect x="2.6868" y="8.47986" width="5.15071" height="0.764295" rx="0.382147" fill="#2C7BE5"/>
<rect x="2.6868" y="10.1747" width="5.15071" height="0.764295" rx="0.382147" fill="#2C7BE5"/>
<path d="M8.44095 4.27097C7.88865 4.27099 7.44092 3.82327 7.44092 3.27097L7.44092 0.868333C7.44092 0.639298 7.62659 0.453628 7.85563 0.453628V0.453628C7.96135 0.453628 8.06308 0.494006 8.14002 0.566507L9.74821 2.08182L10.8592 3.19284C10.9777 3.31127 11.0442 3.4719 11.0442 3.63939V3.63939C11.0442 3.98817 10.7615 4.2709 10.4127 4.27091L8.44095 4.27097Z" fill="white"/>
</svg>
