<svg width="16" height="16" viewBox="0 0 16 16" fill="none" xmlns="http://www.w3.org/2000/svg">
<circle cx="8.09349" cy="6.1696" r="5.52959" fill="white"/>
<path d="M8.33179 2.07971V3.23206H7.72241V2.07971H8.33179ZM8.25757 8.45862V9.5094H7.64819V8.45862H8.25757ZM8.68726 7.17737C8.68726 7.02893 8.65991 6.90263 8.60522 6.79846C8.55314 6.6943 8.4672 6.60185 8.34741 6.52112C8.23022 6.44039 8.07137 6.36226 7.87085 6.28674C7.53231 6.15653 7.23413 6.01851 6.97632 5.87268C6.72111 5.72424 6.52189 5.54065 6.37866 5.3219C6.23543 5.10055 6.16382 4.8206 6.16382 4.48206C6.16382 4.15914 6.24064 3.87919 6.39429 3.64221C6.54793 3.40523 6.76017 3.22294 7.03101 3.09534C7.30444 2.96513 7.62215 2.90002 7.98413 2.90002C8.26017 2.90002 8.51017 2.94169 8.73413 3.02502C8.95809 3.10575 9.1508 3.22555 9.31226 3.3844C9.47371 3.54065 9.59741 3.73206 9.68335 3.95862C9.76929 4.18518 9.81226 4.4443 9.81226 4.73596H8.69116C8.69116 4.57971 8.67424 4.44169 8.64038 4.3219C8.60653 4.20211 8.55705 4.10185 8.49194 4.02112C8.42944 3.94039 8.35392 3.88049 8.26538 3.84143C8.17684 3.79976 8.07918 3.77893 7.97241 3.77893C7.81356 3.77893 7.68335 3.81018 7.58179 3.87268C7.48022 3.93518 7.40601 4.01982 7.35913 4.12659C7.31486 4.23075 7.29272 4.35055 7.29272 4.48596C7.29272 4.61877 7.31616 4.73466 7.36304 4.83362C7.41252 4.93258 7.49715 5.02372 7.61694 5.10706C7.73674 5.18778 7.9008 5.27112 8.10913 5.35706C8.44767 5.48726 8.74455 5.62789 8.99976 5.77893C9.25496 5.92997 9.45418 6.11487 9.59741 6.33362C9.74064 6.55237 9.81226 6.83101 9.81226 7.16956C9.81226 7.50549 9.73413 7.79195 9.57788 8.02893C9.42163 8.26331 9.20288 8.44299 8.92163 8.56799C8.64038 8.69039 8.31486 8.75159 7.94507 8.75159C7.70549 8.75159 7.4672 8.72034 7.23022 8.65784C6.99325 8.59273 6.7784 8.48857 6.58569 8.34534C6.39299 8.20211 6.23934 8.012 6.12476 7.77502C6.01017 7.53544 5.95288 7.24117 5.95288 6.89221H7.07788C7.07788 7.08232 7.10262 7.24117 7.1521 7.36877C7.20158 7.49377 7.26668 7.59403 7.34741 7.66956C7.43075 7.74247 7.5245 7.79456 7.62866 7.82581C7.73283 7.85706 7.8383 7.87268 7.94507 7.87268C8.11174 7.87268 8.24845 7.84273 8.35522 7.78284C8.4646 7.72294 8.54663 7.64091 8.60132 7.53674C8.65861 7.42997 8.68726 7.31018 8.68726 7.17737Z" fill="#1CC88A"/>
<rect x="0.884338" y="13.3496" width="14.6172" height="1.83452" fill="white"/>
<path d="M2.59884 10.7483L4.61693 12.5406H1.33075L0.884338 12.2802V11.3377L1.33075 10.7483L2.59884 10.7483Z" fill="white"/>
<rect x="0.884338" y="12.0707" width="1.92485" height="1.45088" fill="white"/>
<path d="M13.5791 10.6696H15.4858V12.4863H11.7314L13.5791 10.6696Z" fill="white"/>
<rect x="13.6784" y="12.3875" width="1.80752" height="1.30766" fill="white"/>
</svg>
