<svg width="17" height="14" viewBox="0 0 17 14" fill="none" xmlns="http://www.w3.org/2000/svg">
<circle cx="8.59577" cy="4.59846" r="3.91828" fill="#7E868C"/>
<ellipse cx="8.65452" cy="11.4871" rx="4.92943" ry="1.83277" fill="#7E868C"/>
<path d="M14.9744 13.0669H2.20837L4.10434 11.2974H13.3312L14.9744 13.0669Z" stroke="#7E868C"/>
<path d="M8.27551 11.4239C9.37058 11.4513 10.2422 12.2494 11.309 12.3087C12.0268 12.3485 12.7857 11.9727 13.4577 12.3087" stroke="#7E868C" stroke-linecap="round"/>
<path d="M5.28065 12.6197C4.93574 12.6919 4.53133 12.8408 4.17834 12.7473C3.9274 12.6809 3.67608 12.5987 3.43237 12.5098C3.32877 12.4719 2.97686 12.3695 3.28251 12.3954C3.77104 12.4369 4.34853 12.492 4.8233 12.3288C5.13 12.2234 5.43842 12.1285 5.75132 12.0402C5.88657 12.002 6.02498 11.9736 6.15095 11.9081C6.16808 11.8992 6.25496 11.8217 6.25863 11.8437C6.26648 11.8909 6.25831 11.944 6.24975 11.9903C6.19588 12.2811 6.52957 12.3815 6.75927 12.3799C6.97121 12.3784 7.15717 12.3017 7.34761 12.2156C7.45694 12.1662 7.6933 12.1069 7.73836 11.9758C7.77363 11.8732 7.79286 11.6374 7.70617 11.5507C7.6485 11.493 7.50514 11.4912 7.43531 11.5151C7.11376 11.6251 7.14622 11.8999 7.36315 12.1002C7.54051 12.2639 7.7498 12.3632 7.9848 12.4154C8.20788 12.465 8.67991 12.573 8.83512 12.3255C8.90561 12.2131 8.88938 12.0094 8.8551 11.887C8.82206 11.769 8.70163 11.7274 8.59756 11.685C8.46489 11.6309 8.32347 11.6023 8.18239 11.5806C8.11599 11.5704 7.98276 11.5329 7.91819 11.5695C7.85271 11.6067 7.87528 11.7624 7.88267 11.8204C7.91414 12.0677 8.15907 12.2568 8.33669 12.4054C8.49076 12.5344 8.67527 12.6715 8.8884 12.6419C9.08542 12.6144 9.25575 12.4656 9.35908 12.3022C9.54785 12.0037 9.30338 11.8877 9.06157 11.7605C8.95751 11.7057 8.55964 11.4666 8.43327 11.5695C8.36312 11.6267 8.39828 11.8133 8.41107 11.8848C8.44778 12.0901 8.53357 12.3049 8.67971 12.4565C8.83741 12.62 9.20243 12.7882 9.32799 12.4842C9.38918 12.3361 9.07966 12.3403 9.01273 12.3299C8.31071 12.221 7.58029 12.315 6.87916 12.3843C6.6243 12.4095 6.36041 12.4173 6.10433 12.4199C6.0444 12.4205 5.98443 12.4199 5.92449 12.4199C5.91413 12.4199 5.90377 12.4199 5.89341 12.4199C5.83983 12.4199 5.99824 12.3973 6.04993 12.3832C7.24922 12.0561 8.52593 11.865 9.7698 11.8415C10.0056 11.8371 9.90354 11.8454 9.77202 11.8804C9.35263 11.9918 8.89271 12.1002 8.45769 12.1002" stroke="#7E868C" stroke-linecap="round"/>
</svg>
